<svg xmlns="http://www.w3.org/2000/svg" xmlns:xlink="http://www.w3.org/1999/xlink" xmlns:lucid="lucid" width="3670.5" height="1272.69"><g transform="translate(960.5 -854.2362059540959)" lucid:page-tab-id="0_0"><path d="M-1000 500h4000v2000h-4000z" fill="#fff"/><path d="M1340.5 995a.25.25 0 0 1 .25.24v121.2a.25.25 0 0 1-.25.24.25.25 0 0 1-.25-.25v-121.2a.25.25 0 0 1 .25-.24z" stroke="#3a414a" stroke-width=".5" fill="none"/><path d="M1257.8 1126a6 6 0 0 1 6-6h148a6 6 0 0 1 6 6v108a6 6 0 0 1-6 6h-148a6 6 0 0 1-6-6z" stroke="#3a414a" fill="#6db1ff"/><use xlink:href="#a" transform="matrix(1,0,0,1,1262.802886971138,1125) translate(31.79012345679012 21.21527777777778)"/><use xlink:href="#b" transform="matrix(1,0,0,1,1262.802886971138,1125) translate(87.34567901234568 21.21527777777778)"/><use xlink:href="#c" transform="matrix(1,0,0,1,1262.802886971138,1125) translate(9.10493827160495 47.88194444444444)"/><use xlink:href="#d" transform="matrix(1,0,0,1,1262.802886971138,1125) translate(76.88271604938272 47.88194444444444)"/><use xlink:href="#e" transform="matrix(1,0,0,1,1262.802886971138,1125) translate(124.9074074074074 47.88194444444444)"/><use xlink:href="#f" transform="matrix(1,0,0,1,1262.802886971138,1125) translate(9.043209876543216 74.54861111111111)"/><use xlink:href="#g" transform="matrix(1,0,0,1,1262.802886971138,1125) translate(55.89506172839507 74.54861111111111)"/><use xlink:href="#h" transform="matrix(1,0,0,1,1262.802886971138,1125) translate(92.9320987654321 74.54861111111111)"/><use xlink:href="#i" transform="matrix(1,0,0,1,1262.802886971138,1125) translate(38.02469135802469 101.21527777777777)"/><path d="M1260.5 880.74a6 6 0 0 1 6-6h148a6 6 0 0 1 6 6v108a6 6 0 0 1-6 6h-148a6 6 0 0 1-6-6z" stroke="#3a414a" fill="#ffe342"/><use xlink:href="#a" transform="matrix(1,0,0,1,1265.5,879.7362059540959) translate(10.185185185185176 59.02777777777778)"/><use xlink:href="#j" transform="matrix(1,0,0,1,1265.5,879.7362059540959) translate(65.74074074074073 59.02777777777778)"/><use xlink:href="#k" transform="matrix(1,0,0,1,1265.5,879.7362059540959) translate(102.77777777777779 59.02777777777778)"/><path d="M1759 1122.93a6 6 0 0 1 6-6h148a6 6 0 0 1 6 6v108a6 6 0 0 1-6 6h-148a6 6 0 0 1-6-6z" stroke="#3a414a" fill="#6db1ff"/><use xlink:href="#l" transform="matrix(1,0,0,1,1764,1121.933318982958) translate(24.444444444444436 45.27777777777778)"/><use xlink:href="#m" transform="matrix(1,0,0,1,1764,1121.933318982958) translate(76.23456790123456 45.27777777777778)"/><use xlink:href="#n" transform="matrix(1,0,0,1,1764,1121.933318982958) translate(113.20987654320987 45.27777777777778)"/><use xlink:href="#o" transform="matrix(1,0,0,1,1764,1121.933318982958) translate(47.839506172839506 71.94444444444446)"/><path d="M800.25 1179.5a.25.25 0 0 1 .25-.25h456.8a.25.25 0 0 1 .25.25.25.25 0 0 1-.25.25H800.5a.25.25 0 0 1-.25-.25z" stroke="#3a414a" stroke-width=".5" fill="none"/><path d="M640 1126.5a6 6 0 0 1 6-6h148a6 6 0 0 1 6 6v108a6 6 0 0 1-6 6H646a6 6 0 0 1-6-6z" stroke="#3a414a" fill="#6db1ff"/><use xlink:href="#p" transform="matrix(1,0,0,1,645,1125.5) translate(12.993827160493822 45.27777777777778)"/><use xlink:href="#q" transform="matrix(1,0,0,1,645,1125.5) translate(34.907407407407405 71.94444444444446)"/><path d="M1779.5 1237.18a.25.25 0 0 1 .25.25v118.5a.25.25 0 0 1-.25.25.25.25 0 0 1-.25-.25v-118.5a.25.25 0 0 1 .25-.25z" stroke="#3a414a" stroke-width=".5" fill="none"/><path d="M1640 1362.43a6 6 0 0 1 6-6h148a6 6 0 0 1 6 6v108a6 6 0 0 1-6 6h-148a6 6 0 0 1-6-6z" stroke="#3a414a" fill="#e08fff"/><use xlink:href="#r" transform="matrix(1,0,0,1,1645,1361.433318982958) translate(13.99074074074074 43.61805555555556)"/><use xlink:href="#s" transform="matrix(1,0,0,1,1645,1361.433318982958) translate(102.05864197530863 43.61805555555556)"/><use xlink:href="#t" transform="matrix(1,0,0,1,1645,1361.433318982958) translate(58.02469135802469 72.95138888888889)"/><path d="M1899.5 1237.18a.25.25 0 0 1 .25.25v118.5a.25.25 0 0 1-.25.25.25.25 0 0 1-.25-.25v-118.5a.25.25 0 0 1 .25-.25z" stroke="#3a414a" stroke-width=".5" fill="none"/><path d="M1879 1362.43a6 6 0 0 1 6-6h148a6 6 0 0 1 6 6v108a6 6 0 0 1-6 6h-148a6 6 0 0 1-6-6z" stroke="#3a414a" fill="#e08fff"/><use xlink:href="#u" transform="matrix(1,0,0,1,1884,1361.433318982958) translate(7.746913580246911 59.02777777777778)"/><use xlink:href="#g" transform="matrix(1,0,0,1,1884,1361.433318982958) translate(57.06790123456789 59.02777777777778)"/><use xlink:href="#v" transform="matrix(1,0,0,1,1884,1361.433318982958) translate(94.10493827160494 59.02777777777778)"/><path d="M1341.5 1240.75a.25.25 0 0 1 .25.25v198.5a.25.25 0 0 1-.25.25.25.25 0 0 1-.25-.25V1241a.25.25 0 0 1 .25-.25z" stroke="#3a414a" stroke-width=".5" fill="none"/><path d="M1261.5 1446a6 6 0 0 1 6-6h148a6 6 0 0 1 6 6v108a6 6 0 0 1-6 6h-148a6 6 0 0 1-6-6z" stroke="#3a414a" fill="#e08fff"/><use xlink:href="#w" transform="matrix(1,0,0,1,1266.5,1445) translate(29.351851851851848 59.02777777777778)"/><use xlink:href="#x" transform="matrix(1,0,0,1,1266.5,1445) translate(89.78395061728395 59.02777777777778)"/><path d="M1341.5 1560.25a.25.25 0 0 1 .25.25V1739a.25.25 0 0 1-.25.25.25.25 0 0 1-.25-.25v-178.5a.25.25 0 0 1 .25-.25z" stroke="#3a414a" stroke-width=".5" fill="none"/><path d="M1261.5 1745.5a6 6 0 0 1 6-6h148a6 6 0 0 1 6 6v108a6 6 0 0 1-6 6h-148a6 6 0 0 1-6-6z" stroke="#3a414a" fill="#ff80df"/><use xlink:href="#l" transform="matrix(1,0,0,1,1266.5,1744.5) translate(5.8950617283950635 31.52777777777778)"/><use xlink:href="#g" transform="matrix(1,0,0,1,1266.5,1744.5) translate(57.68518518518519 31.52777777777778)"/><use xlink:href="#j" transform="matrix(1,0,0,1,1266.5,1744.5) translate(94.72222222222223 31.52777777777778)"/><use xlink:href="#n" transform="matrix(1,0,0,1,1266.5,1744.5) translate(131.75925925925927 31.52777777777778)"/><use xlink:href="#y" transform="matrix(1,0,0,1,1266.5,1744.5) translate(22.037037037037038 58.19444444444445)"/><use xlink:href="#z" transform="matrix(1,0,0,1,1266.5,1744.5) translate(83.64197530864197 58.19444444444445)"/><use xlink:href="#A" transform="matrix(1,0,0,1,1266.5,1744.5) translate(52.808641975308646 84.86111111111111)"/><path d="M1418.33 1860.03a.25.25 0 0 1 .36 0l125.5 125.5a.25.25 0 0 1 0 .37.25.25 0 0 1-.36 0l-125.5-125.52a.25.25 0 0 1 0-.35z" stroke="#3a414a" stroke-width=".5" fill="none"/><path d="M1520 1992.43a6 6 0 0 1 6-6h148a6 6 0 0 1 6 6v108a6 6 0 0 1-6 6h-148a6 6 0 0 1-6-6z" stroke="#3a414a" fill="#ff80df"/><use xlink:href="#B" transform="matrix(1,0,0,1,1525,1991.4256672229853) translate(2.8703703703703667 31.52777777777778)"/><use xlink:href="#C" transform="matrix(1,0,0,1,1525,1991.4256672229853) translate(116.26543209876543 31.52777777777778)"/><use xlink:href="#j" transform="matrix(1,0,0,1,1525,1991.4256672229853) translate(10.802469135802468 58.19444444444445)"/><use xlink:href="#D" transform="matrix(1,0,0,1,1525,1991.4256672229853) translate(47.839506172839506 58.19444444444445)"/><use xlink:href="#E" transform="matrix(1,0,0,1,1525,1991.4256672229853) translate(114.50617283950616 58.19444444444445)"/><use xlink:href="#F" transform="matrix(1,0,0,1,1525,1991.4256672229853) translate(26.882716049382708 84.86111111111111)"/><path d="M1020 1985.5a6 6 0 0 1 6-6h148a6 6 0 0 1 6 6v108a6 6 0 0 1-6 6h-148a6 6 0 0 1-6-6z" stroke="#3a414a" fill="#ff80df"/><use xlink:href="#B" transform="matrix(1,0,0,1,1025,1984.5) translate(2.8703703703703667 31.52777777777778)"/><use xlink:href="#C" transform="matrix(1,0,0,1,1025,1984.5) translate(116.26543209876543 31.52777777777778)"/><use xlink:href="#j" transform="matrix(1,0,0,1,1025,1984.5) translate(10.802469135802468 58.19444444444445)"/><use xlink:href="#D" transform="matrix(1,0,0,1,1025,1984.5) translate(47.839506172839506 58.19444444444445)"/><use xlink:href="#E" transform="matrix(1,0,0,1,1025,1984.5) translate(114.50617283950616 58.19444444444445)"/><use xlink:href="#G" transform="matrix(1,0,0,1,1025,1984.5) translate(46.635802469135804 84.86111111111111)"/><path d="M1281.24 1858.26a.25.25 0 0 1 0 .35l-120.36 120.37a.25.25 0 0 1-.35 0 .25.25 0 0 1 0-.35l120.36-120.36a.25.25 0 0 1 .34 0zM1340.5 1859.75a.25.25 0 0 1 .25.25v119a.25.25 0 0 1-.25.25.25.25 0 0 1-.25-.25v-119a.25.25 0 0 1 .25-.25z" stroke="#3a414a" stroke-width=".5" fill="none"/><path d="M1261.5 1985.5a6 6 0 0 1 6-6h148a6 6 0 0 1 6 6v108a6 6 0 0 1-6 6h-148a6 6 0 0 1-6-6z" stroke="#3a414a" fill="#ff80df"/><use xlink:href="#B" transform="matrix(1,0,0,1,1266.5,1984.5) translate(2.8703703703703667 31.52777777777778)"/><use xlink:href="#C" transform="matrix(1,0,0,1,1266.5,1984.5) translate(116.26543209876543 31.52777777777778)"/><use xlink:href="#j" transform="matrix(1,0,0,1,1266.5,1984.5) translate(10.802469135802468 58.19444444444445)"/><use xlink:href="#D" transform="matrix(1,0,0,1,1266.5,1984.5) translate(47.839506172839506 58.19444444444445)"/><use xlink:href="#E" transform="matrix(1,0,0,1,1266.5,1984.5) translate(114.50617283950616 58.19444444444445)"/><use xlink:href="#H" transform="matrix(1,0,0,1,1266.5,1984.5) translate(38.58024691358025 84.86111111111111)"/><path d="M1410.25 1180a.25.25 0 0 1 .25-.25h349a.25.25 0 0 1 .25.25.25.25 0 0 1-.25.25h-349a.25.25 0 0 1-.25-.25z" stroke="#3a414a" stroke-width=".5" fill="none"/><path d="M480 1466a6 6 0 0 1 6-6h148a6 6 0 0 1 6 6v146.33a6 6 0 0 1-6 6H486a6 6 0 0 1-6-6z" stroke="#3a414a" fill="#e08fff"/><use xlink:href="#I" transform="matrix(1,0,0,1,485,1465) translate(19.47530864197531 41.05902777777778)"/><use xlink:href="#n" transform="matrix(1,0,0,1,485,1465) translate(118.17901234567901 41.05902777777778)"/><use xlink:href="#J" transform="matrix(1,0,0,1,485,1465) translate(3.4876543209876587 67.72569444444446)"/><use xlink:href="#K" transform="matrix(1,0,0,1,485,1465) translate(66.38888888888889 67.72569444444446)"/><use xlink:href="#L" transform="matrix(1,0,0,1,485,1465) translate(91.08024691358025 67.72569444444446)"/><use xlink:href="#K" transform="matrix(1,0,0,1,485,1465) translate(13.302469135802468 94.39236111111111)"/><use xlink:href="#M" transform="matrix(1,0,0,1,485,1465) translate(37.99382716049382 94.39236111111111)"/><use xlink:href="#j" transform="matrix(1,0,0,1,485,1465) translate(56.51234567901234 94.39236111111111)"/><use xlink:href="#N" transform="matrix(1,0,0,1,485,1465) translate(93.54938271604938 94.39236111111111)"/><use xlink:href="#O" transform="matrix(1,0,0,1,485,1465) translate(54.074074074074076 121.0590277777778)"/><path d="M720.5 1240.75a.25.25 0 0 1 .25.25v118.5a.25.25 0 0 1-.25.25.25.25 0 0 1-.25-.25V1241a.25.25 0 0 1 .25-.25z" stroke="#3a414a" stroke-width=".5" fill="none"/><path d="M720.25 1359.5a.25.25 0 0 1 .25-.25h159a.25.25 0 0 1 .25.25.25.25 0 0 1-.25.25h-159a.25.25 0 0 1-.25-.25z" stroke="#3a414a" stroke-width=".5" fill="none"/><path d="M.25 1359.5a.25.25 0 0 1 .25-.25h720a.25.25 0 0 1 .25.25.25.25 0 0 1-.25.25H.5a.25.25 0 0 1-.25-.25z" stroke="#3a414a" stroke-width=".5" fill="none"/><path d="M560.5 1359.25a.25.25 0 0 1 .25.25v100a.25.25 0 0 1-.25.25.25.25 0 0 1-.25-.25v-100a.25.25 0 0 1 .25-.25z" stroke="#3a414a" stroke-width=".5" fill="none"/><g><path d="M879.5 1359.25a.25.25 0 0 1 .25.25v100a.25.25 0 0 1-.25.25.25.25 0 0 1-.25-.25v-100a.25.25 0 0 1 .25-.25z" stroke="#3a414a" stroke-width=".5" fill="none"/></g><path d="M799.5 1427.67a6 6 0 0 1 6-6h148a6 6 0 0 1 6 6v184.66a6 6 0 0 1-6 6h-148a6 6 0 0 1-6-6z" stroke="#3a414a" fill="#e08fff"/><g><use xlink:href="#I" transform="matrix(1,0,0,1,804.5,1426.6666666666667) translate(19.47530864197531 23.62152777777778)"/><use xlink:href="#n" transform="matrix(1,0,0,1,804.5,1426.6666666666667) translate(118.17901234567901 23.62152777777778)"/><use xlink:href="#J" transform="matrix(1,0,0,1,804.5,1426.6666666666667) translate(3.4876543209876587 50.28819444444445)"/><use xlink:href="#K" transform="matrix(1,0,0,1,804.5,1426.6666666666667) translate(66.38888888888889 50.28819444444445)"/><use xlink:href="#L" transform="matrix(1,0,0,1,804.5,1426.6666666666667) translate(91.08024691358025 50.28819444444445)"/><use xlink:href="#K" transform="matrix(1,0,0,1,804.5,1426.6666666666667) translate(13.302469135802468 76.95486111111111)"/><use xlink:href="#M" transform="matrix(1,0,0,1,804.5,1426.6666666666667) translate(37.99382716049382 76.95486111111111)"/><use xlink:href="#j" transform="matrix(1,0,0,1,804.5,1426.6666666666667) translate(56.51234567901234 76.95486111111111)"/><use xlink:href="#N" transform="matrix(1,0,0,1,804.5,1426.6666666666667) translate(93.54938271604938 76.95486111111111)"/><use xlink:href="#P" transform="matrix(1,0,0,1,804.5,1426.6666666666667) translate(25.061728395061728 103.6215277777778)"/><use xlink:href="#Q" transform="matrix(1,0,0,1,804.5,1426.6666666666667) translate(106.41975308641975 103.6215277777778)"/><use xlink:href="#R" transform="matrix(1,0,0,1,804.5,1426.6666666666667) translate(4.753086419753089 130.28819444444446)"/><use xlink:href="#S" transform="matrix(1,0,0,1,804.5,1426.6666666666667) translate(62.71604938271606 130.28819444444446)"/><use xlink:href="#K" transform="matrix(1,0,0,1,804.5,1426.6666666666667) translate(19.907407407407405 156.95486111111111)"/><use xlink:href="#T" transform="matrix(1,0,0,1,804.5,1426.6666666666667) translate(44.59876543209876 156.95486111111111)"/><use xlink:href="#U" transform="matrix(1,0,0,1,804.5,1426.6666666666667) translate(103.73456790123457 156.95486111111111)"/><use xlink:href="#V" transform="matrix(1,0,0,1,804.5,1426.6666666666667) translate(39.25925925925926 183.62152777777777)"/></g><g><path d="M559.5 1618.58a.25.25 0 0 1 .25.25v140.67a.25.25 0 0 1-.25.25.25.25 0 0 1-.25-.25v-140.67a.25.25 0 0 1 .25-.25z" stroke="#3a414a" stroke-width=".5" fill="none"/></g><path d="M479.5 1766a6 6 0 0 1 6-6h148a6 6 0 0 1 6 6v108a6 6 0 0 1-6 6h-148a6 6 0 0 1-6-6z" stroke="#3a414a" fill="#ff80df"/><g><use xlink:href="#W" transform="matrix(1,0,0,1,484.5,1765) translate(30.617283950617285 31.52777777777778)"/><use xlink:href="#X" transform="matrix(1,0,0,1,484.5,1765) translate(83.58024691358025 31.52777777777778)"/><use xlink:href="#Y" transform="matrix(1,0,0,1,484.5,1765) translate(9.012345679012341 58.19444444444445)"/><use xlink:href="#C" transform="matrix(1,0,0,1,484.5,1765) translate(110.12345679012346 58.19444444444445)"/><use xlink:href="#Z" transform="matrix(1,0,0,1,484.5,1765) translate(46.635802469135804 84.86111111111111)"/></g><g><path d="M880.5 1618.58a.25.25 0 0 1 .25.25v140.67a.25.25 0 0 1-.25.25.25.25 0 0 1-.25-.25v-140.67a.25.25 0 0 1 .25-.25z" stroke="#3a414a" stroke-width=".5" fill="none"/></g><path d="M799.5 1766a6 6 0 0 1 6-6h148a6 6 0 0 1 6 6v108a6 6 0 0 1-6 6h-148a6 6 0 0 1-6-6z" stroke="#3a414a" fill="#ff80df"/><g><use xlink:href="#W" transform="matrix(1,0,0,1,804.4999999999998,1765) translate(30.617283950617285 31.52777777777778)"/><use xlink:href="#X" transform="matrix(1,0,0,1,804.4999999999998,1765) translate(83.58024691358025 31.52777777777778)"/><use xlink:href="#Y" transform="matrix(1,0,0,1,804.4999999999998,1765) translate(9.012345679012341 58.19444444444445)"/><use xlink:href="#C" transform="matrix(1,0,0,1,804.4999999999998,1765) translate(110.12345679012346 58.19444444444445)"/><use xlink:href="#Z" transform="matrix(1,0,0,1,804.4999999999998,1765) translate(46.635802469135804 84.86111111111111)"/></g><path d="M1919.25 1178.5a.25.25 0 0 1 .25-.25h360a.25.25 0 0 1 .25.25.25.25 0 0 1-.25.25h-360a.25.25 0 0 1-.25-.25z" stroke="#3a414a" stroke-width=".5" fill="none"/><path d="M2280 1126.5a6 6 0 0 1 6-6h148a6 6 0 0 1 6 6v108a6 6 0 0 1-6 6h-148a6 6 0 0 1-6-6z" stroke="#3a414a" fill="#6db1ff"/><g><use xlink:href="#aa" transform="matrix(1,0,0,1,2285,1125.5) translate(28.20987654320988 59.02777777777778)"/></g><g><path d="M2360.5 1240.75a.25.25 0 0 1 .25.25v118.5a.25.25 0 0 1-.25.25.25.25 0 0 1-.25-.25V1241a.25.25 0 0 1 .25-.25z" stroke="#3a414a" stroke-width=".5" fill="none"/></g><path d="M2140 1466a6 6 0 0 1 6-6h148a6 6 0 0 1 6 6v108a6 6 0 0 1-6 6h-148a6 6 0 0 1-6-6z" stroke="#3a414a" fill="#e08fff"/><g><use xlink:href="#ab" transform="matrix(1,0,0,1,2145,1465) translate(12.129629629629619 45.27777777777778)"/><use xlink:href="#C" transform="matrix(1,0,0,1,2145,1465) translate(107.00617283950618 45.27777777777778)"/><use xlink:href="#ac" transform="matrix(1,0,0,1,2145,1465) translate(20.462962962962962 71.94444444444446)"/><use xlink:href="#G" transform="matrix(1,0,0,1,2145,1465) translate(72.80864197530863 71.94444444444446)"/></g><path d="M2219.25 1360.5a.25.25 0 0 1 .25-.25h390a.25.25 0 0 1 .25.25.25.25 0 0 1-.25.25h-390a.25.25 0 0 1-.25-.25z" stroke="#3a414a" stroke-width=".5" fill="none"/><g><path d="M2219.5 1360.25a.25.25 0 0 1 .25.25v99a.25.25 0 0 1-.25.25.25.25 0 0 1-.25-.25v-99a.25.25 0 0 1 .25-.25z" stroke="#3a414a" stroke-width=".5" fill="none"/></g><g><path d="M2360.5 1359.25a.25.25 0 0 1 .25.25v100a.25.25 0 0 1-.25.25.25.25 0 0 1-.25-.25v-100a.25.25 0 0 1 .25-.25z" stroke="#3a414a" stroke-width=".5" fill="none"/></g><path d="M2320 1466a6 6 0 0 1 6-6h148a6 6 0 0 1 6 6v108a6 6 0 0 1-6 6h-148a6 6 0 0 1-6-6z" stroke="#3a414a" fill="#e08fff"/><g><use xlink:href="#ab" transform="matrix(1,0,0,1,2325,1464.9999999999993) translate(12.129629629629619 45.27777777777778)"/><use xlink:href="#C" transform="matrix(1,0,0,1,2325,1464.9999999999993) translate(107.00617283950618 45.27777777777778)"/><use xlink:href="#ac" transform="matrix(1,0,0,1,2325,1464.9999999999993) translate(12.407407407407405 71.94444444444446)"/><use xlink:href="#H" transform="matrix(1,0,0,1,2325,1464.9999999999993) translate(64.75308641975309 71.94444444444446)"/></g><path d="M2529.5 1466a6 6 0 0 1 6-6h148a6 6 0 0 1 6 6v108a6 6 0 0 1-6 6h-148a6 6 0 0 1-6-6z" stroke="#3a414a" fill="#e08fff"/><g><use xlink:href="#ab" transform="matrix(1,0,0,1,2534.5000000000005,1465) translate(12.129629629629619 45.27777777777778)"/><use xlink:href="#C" transform="matrix(1,0,0,1,2534.5000000000005,1465) translate(107.00617283950618 45.27777777777778)"/><use xlink:href="#ac" transform="matrix(1,0,0,1,2534.5000000000005,1465) translate(21.111111111111114 71.94444444444446)"/><use xlink:href="#ad" transform="matrix(1,0,0,1,2534.5000000000005,1465) translate(73.45679012345678 71.94444444444446)"/></g><g><path d="M2609.5 1360.25a.25.25 0 0 1 .25.25v99a.25.25 0 0 1-.25.25.25.25 0 0 1-.25-.25v-99a.25.25 0 0 1 .25-.25z" stroke="#3a414a" stroke-width=".5" fill="none"/></g><path d="M-519.75 1180a.25.25 0 0 1 .25-.25h1159a.25.25 0 0 1 .25.25.25.25 0 0 1-.25.25h-1159a.25.25 0 0 1-.25-.25z" stroke="#3a414a" stroke-width=".5" fill="none"/><path d="M-680 1126.5a6 6 0 0 1 6-6h148a6 6 0 0 1 6 6v108a6 6 0 0 1-6 6h-148a6 6 0 0 1-6-6z" stroke="#3a414a" fill="#6db1ff"/><g><use xlink:href="#ae" transform="matrix(1,0,0,1,-675,1125.5) translate(32.932098765432094 59.02777777777778)"/></g><g><path d="M-599.5 1239.18a.25.25 0 0 1 .25.25v202.07a.25.25 0 0 1-.25.25.25.25 0 0 1-.25-.25v-202.07a.25.25 0 0 1 .25-.25z" stroke="#3a414a" stroke-width=".5" fill="none"/></g><path d="M-859.75 1359.5a.25.25 0 0 1 .25-.25h529a.25.25 0 0 1 .25.25.25.25 0 0 1-.25.25h-529a.25.25 0 0 1-.25-.25z" stroke="#3a414a" stroke-width=".5" fill="none"/><path d="M-679.5 1448a6 6 0 0 1 6-6h148a6 6 0 0 1 6 6v108a6 6 0 0 1-6 6h-148a6 6 0 0 1-6-6z" stroke="#3a414a" fill="#e08fff"/><g><use xlink:href="#af" transform="matrix(1,0,0,1,-674.5,1447) translate(43.95061728395062 31.52777777777778)"/><use xlink:href="#ag" transform="matrix(1,0,0,1,-674.5,1447) translate(26.882716049382708 58.19444444444445)"/><use xlink:href="#ah" transform="matrix(1,0,0,1,-674.5,1447) translate(36.2037037037037 84.86111111111111)"/></g><g><path d="M-329.5 1359.25a.25.25 0 0 1 .25.25v80a.25.25 0 0 1-.25.25.25.25 0 0 1-.25-.25v-80a.25.25 0 0 1 .25-.25z" stroke="#3a414a" stroke-width=".5" fill="none"/></g><path d="M-420 1446a6 6 0 0 1 6-6h148a6 6 0 0 1 6 6v108a6 6 0 0 1-6 6h-148a6 6 0 0 1-6-6z" stroke="#3a414a" fill="#e08fff"/><g><use xlink:href="#ai" transform="matrix(1,0,0,1,-415,1445) translate(17.407407407407405 45.27777777777778)"/><use xlink:href="#aj" transform="matrix(1,0,0,1,-415,1445) translate(85.67901234567901 45.27777777777778)"/><use xlink:href="#j" transform="matrix(1,0,0,1,-415,1445) translate(17.685185185185183 71.94444444444446)"/><use xlink:href="#ah" transform="matrix(1,0,0,1,-415,1445) translate(54.72222222222222 71.94444444444446)"/></g><path d="M-940 1446a6 6 0 0 1 6-6h148a6 6 0 0 1 6 6v108a6 6 0 0 1-6 6h-148a6 6 0 0 1-6-6z" stroke="#3a414a" fill="#e08fff"/><g><use xlink:href="#af" transform="matrix(1,0,0,1,-935,1445) translate(43.95061728395062 31.52777777777778)"/><use xlink:href="#ak" transform="matrix(1,0,0,1,-935,1445) translate(31.851851851851848 58.19444444444445)"/><use xlink:href="#ah" transform="matrix(1,0,0,1,-935,1445) translate(36.2037037037037 84.86111111111111)"/></g><g><path d="M-859.5 1359.25a.25.25 0 0 1 .25.25v80a.25.25 0 0 1-.25.25.25.25 0 0 1-.25-.25v-80a.25.25 0 0 1 .25-.25z" stroke="#3a414a" stroke-width=".5" fill="none"/></g><path d="M160.5 1446a6 6 0 0 1 6-6h148a6 6 0 0 1 6 6v158a6 6 0 0 1-6 6h-148a6 6 0 0 1-6-6z" stroke="#3a414a" fill="#e08fff"/><g><use xlink:href="#I" transform="matrix(1,0,0,1,165.5,1445) translate(19.47530864197531 22.77777777777778)"/><use xlink:href="#n" transform="matrix(1,0,0,1,165.5,1445) translate(118.17901234567901 22.77777777777778)"/><use xlink:href="#J" transform="matrix(1,0,0,1,165.5,1445) translate(3.4876543209876587 49.44444444444444)"/><use xlink:href="#K" transform="matrix(1,0,0,1,165.5,1445) translate(66.38888888888889 49.44444444444444)"/><use xlink:href="#L" transform="matrix(1,0,0,1,165.5,1445) translate(91.08024691358025 49.44444444444444)"/><use xlink:href="#K" transform="matrix(1,0,0,1,165.5,1445) translate(20.061728395061728 76.11111111111111)"/><use xlink:href="#al" transform="matrix(1,0,0,1,165.5,1445) translate(44.75308641975309 76.11111111111111)"/><use xlink:href="#K" transform="matrix(1,0,0,1,165.5,1445) translate(92.90123456790124 76.11111111111111)"/><use xlink:href="#n" transform="matrix(1,0,0,1,165.5,1445) translate(117.59259259259258 76.11111111111111)"/><use xlink:href="#am" transform="matrix(1,0,0,1,165.5,1445) translate(2.2222222222222143 102.77777777777777)"/><use xlink:href="#N" transform="matrix(1,0,0,1,165.5,1445) translate(104.62962962962963 102.77777777777777)"/><use xlink:href="#P" transform="matrix(1,0,0,1,165.5,1445) translate(25.061728395061728 129.44444444444446)"/><use xlink:href="#Q" transform="matrix(1,0,0,1,165.5,1445) translate(106.41975308641975 129.44444444444446)"/><use xlink:href="#an" transform="matrix(1,0,0,1,165.5,1445) translate(49.10493827160494 156.11111111111111)"/></g><g><path d="M240.5 1360.25a.25.25 0 0 1 .25.25v79a.25.25 0 0 1-.25.25.25.25 0 0 1-.25-.25v-79a.25.25 0 0 1 .25-.25z" stroke="#3a414a" stroke-width=".5" fill="none"/></g><g><path d="M.5 1359.25a.25.25 0 0 1 .25.25v80a.25.25 0 0 1-.25.25.25.25 0 0 1-.25-.25v-80a.25.25 0 0 1 .25-.25z" stroke="#3a414a" stroke-width=".5" fill="none"/></g><path d="M-79.5 1446a6 6 0 0 1 6-6h148a6 6 0 0 1 6 6v108a6 6 0 0 1-6 6h-148a6 6 0 0 1-6-6z" stroke="#3a414a" fill="#e08fff"/><g><use xlink:href="#I" transform="matrix(1,0,0,1,-74.5,1445) translate(19.47530864197531 21.21527777777778)"/><use xlink:href="#n" transform="matrix(1,0,0,1,-74.5,1445) translate(118.17901234567901 21.21527777777778)"/><use xlink:href="#J" transform="matrix(1,0,0,1,-74.5,1445) translate(3.4876543209876587 47.88194444444444)"/><use xlink:href="#K" transform="matrix(1,0,0,1,-74.5,1445) translate(66.38888888888889 47.88194444444444)"/><use xlink:href="#L" transform="matrix(1,0,0,1,-74.5,1445) translate(91.08024691358025 47.88194444444444)"/><use xlink:href="#K" transform="matrix(1,0,0,1,-74.5,1445) translate(13.302469135802468 74.54861111111111)"/><use xlink:href="#M" transform="matrix(1,0,0,1,-74.5,1445) translate(37.99382716049382 74.54861111111111)"/><use xlink:href="#j" transform="matrix(1,0,0,1,-74.5,1445) translate(56.51234567901234 74.54861111111111)"/><use xlink:href="#N" transform="matrix(1,0,0,1,-74.5,1445) translate(93.54938271604938 74.54861111111111)"/><use xlink:href="#O" transform="matrix(1,0,0,1,-74.5,1445) translate(54.074074074074076 101.21527777777777)"/></g><g><path d="M239.5 1610.25a.25.25 0 0 1 .25.25v140.67a.25.25 0 0 1-.25.25.25.25 0 0 1-.25-.25V1610.5a.25.25 0 0 1 .25-.25z" stroke="#3a414a" stroke-width=".5" fill="none"/></g><path d="M159.5 1757.67a6 6 0 0 1 6-6h148a6 6 0 0 1 6 6v108a6 6 0 0 1-6 6h-148a6 6 0 0 1-6-6z" stroke="#3a414a" fill="#ff80df"/><g><use xlink:href="#W" transform="matrix(1,0,0,1,164.50000000000023,1756.6666666666665) translate(30.617283950617285 31.52777777777778)"/><use xlink:href="#X" transform="matrix(1,0,0,1,164.50000000000023,1756.6666666666665) translate(83.58024691358025 31.52777777777778)"/><use xlink:href="#Y" transform="matrix(1,0,0,1,164.50000000000023,1756.6666666666665) translate(9.012345679012341 58.19444444444445)"/><use xlink:href="#C" transform="matrix(1,0,0,1,164.50000000000023,1756.6666666666665) translate(110.12345679012346 58.19444444444445)"/><use xlink:href="#Z" transform="matrix(1,0,0,1,164.50000000000023,1756.6666666666665) translate(46.635802469135804 84.86111111111111)"/></g><g><path d="M.5 1560.25a.25.25 0 0 1 .25.25v189a.25.25 0 0 1-.25.25.25.25 0 0 1-.25-.25v-189a.25.25 0 0 1 .25-.25z" stroke="#3a414a" stroke-width=".5" fill="none"/></g><path d="M-79.5 1756a6 6 0 0 1 6-6h148a6 6 0 0 1 6 6v108a6 6 0 0 1-6 6h-148a6 6 0 0 1-6-6z" stroke="#3a414a" fill="#ff80df"/><g><use xlink:href="#W" transform="matrix(1,0,0,1,-74.50000000000001,1755) translate(30.617283950617285 31.52777777777778)"/><use xlink:href="#X" transform="matrix(1,0,0,1,-74.50000000000001,1755) translate(83.58024691358025 31.52777777777778)"/><use xlink:href="#Y" transform="matrix(1,0,0,1,-74.50000000000001,1755) translate(9.012345679012341 58.19444444444445)"/><use xlink:href="#C" transform="matrix(1,0,0,1,-74.50000000000001,1755) translate(110.12345679012346 58.19444444444445)"/><use xlink:href="#Z" transform="matrix(1,0,0,1,-74.50000000000001,1755) translate(46.635802469135804 84.86111111111111)"/></g><defs><path fill="#3a414a" d="M160-131c35 5 61 23 61 61C221 17 115-2 30 0v-248c76 3 177-17 177 60 0 33-19 50-47 57zm-97-11c50-1 110 9 110-42 0-47-63-36-110-37v79zm0 115c55-2 124 14 124-45 0-56-70-42-124-44v89" id="ao"/><path fill="#3a414a" d="M141-36C126-15 110 5 73 4 37 3 15-17 15-53c-1-64 63-63 125-63 3-35-9-54-41-54-24 1-41 7-42 31l-33-3c5-37 33-52 76-52 45 0 72 20 72 64v82c-1 20 7 32 28 27v20c-31 9-61-2-59-35zM48-53c0 20 12 33 32 33 41-3 63-29 60-74-43 2-92-5-92 41" id="ap"/><path fill="#3a414a" d="M135-143c-3-34-86-38-87 0 15 53 115 12 119 90S17 21 10-45l28-5c4 36 97 45 98 0-10-56-113-15-118-90-4-57 82-63 122-42 12 7 21 19 24 35" id="aq"/><g id="a"><use transform="matrix(0.06172839506172839,0,0,0.06172839506172839,0,0)" xlink:href="#ao"/><use transform="matrix(0.06172839506172839,0,0,0.06172839506172839,14.814814814814813,0)" xlink:href="#ap"/><use transform="matrix(0.06172839506172839,0,0,0.06172839506172839,27.160493827160494,0)" xlink:href="#aq"/><use transform="matrix(0.06172839506172839,0,0,0.06172839506172839,38.27160493827161,0)" xlink:href="#aq"/></g><path fill="#3a414a" d="M59-47c-2 24 18 29 38 22v24C64 9 27 4 27-40v-127H5v-23h24l9-43h21v43h35v23H59v120" id="ar"/><path fill="#3a414a" d="M115-194c53 0 69 39 70 98 0 66-23 100-70 100C84 3 66-7 56-30L54 0H23l1-261h32v101c10-23 28-34 59-34zm-8 174c40 0 45-34 45-75 0-40-5-75-45-74-42 0-51 32-51 76 0 43 10 73 51 73" id="as"/><g id="b"><use transform="matrix(0.06172839506172839,0,0,0.06172839506172839,0,0)" xlink:href="#ar"/><use transform="matrix(0.06172839506172839,0,0,0.06172839506172839,6.172839506172839,0)" xlink:href="#ap"/><use transform="matrix(0.06172839506172839,0,0,0.06172839506172839,18.51851851851852,0)" xlink:href="#as"/></g><path fill="#3a414a" d="M210-169c-67 3-38 105-44 169h-31v-121c0-29-5-50-35-48C34-165 62-65 56 0H25l-1-190h30c1 10-1 24 2 32 10-44 99-50 107 0 11-21 27-35 58-36 85-2 47 119 55 194h-31v-121c0-29-5-49-35-48" id="at"/><path fill="#3a414a" d="M143 0L79-87 56-68V0H24v-261h32v163l83-92h37l-77 82L181 0h-38" id="au"/><path fill="#3a414a" d="M100-194c63 0 86 42 84 106H49c0 40 14 67 53 68 26 1 43-12 49-29l28 8c-11 28-37 45-77 45C44 4 14-33 15-96c1-61 26-98 85-98zm52 81c6-60-76-77-97-28-3 7-6 17-6 28h103" id="av"/><path fill="#3a414a" d="M114-163C36-179 61-72 57 0H25l-1-190h30c1 12-1 29 2 39 6-27 23-49 58-41v29" id="aw"/><g id="c"><use transform="matrix(0.06172839506172839,0,0,0.06172839506172839,0,0)" xlink:href="#at"/><use transform="matrix(0.06172839506172839,0,0,0.06172839506172839,18.456790123456788,0)" xlink:href="#ap"/><use transform="matrix(0.06172839506172839,0,0,0.06172839506172839,30.80246913580247,0)" xlink:href="#au"/><use transform="matrix(0.06172839506172839,0,0,0.06172839506172839,41.91358024691358,0)" xlink:href="#av"/><use transform="matrix(0.06172839506172839,0,0,0.06172839506172839,54.25925925925926,0)" xlink:href="#aw"/></g><path fill="#3a414a" d="M87 75C49 33 22-17 22-94c0-76 28-126 65-167h31c-38 41-64 92-64 168S80 34 118 75H87" id="ax"/><path fill="#3a414a" d="M106-169C34-169 62-67 57 0H25v-261h32l-1 103c12-21 28-36 61-36 89 0 53 116 60 194h-32v-121c2-32-8-49-39-48" id="ay"/><path fill="#3a414a" d="M24-231v-30h32v30H24zM24 0v-190h32V0H24" id="az"/><g id="d"><use transform="matrix(0.06172839506172839,0,0,0.06172839506172839,0,0)" xlink:href="#ax"/><use transform="matrix(0.06172839506172839,0,0,0.06172839506172839,7.345679012345679,0)" xlink:href="#ar"/><use transform="matrix(0.06172839506172839,0,0,0.06172839506172839,13.518518518518519,0)" xlink:href="#ay"/><use transform="matrix(0.06172839506172839,0,0,0.06172839506172839,25.864197530864196,0)" xlink:href="#az"/><use transform="matrix(0.06172839506172839,0,0,0.06172839506172839,30.74074074074074,0)" xlink:href="#aq"/></g><g id="e"><use transform="matrix(0.06172839506172839,0,0,0.06172839506172839,0,0)" xlink:href="#az"/><use transform="matrix(0.06172839506172839,0,0,0.06172839506172839,4.876543209876543,0)" xlink:href="#aq"/></g><path fill="#3a414a" d="M24 0v-261h32V0H24" id="aA"/><path fill="#3a414a" d="M100-194c62-1 85 37 85 99 1 63-27 99-86 99S16-35 15-95c0-66 28-99 85-99zM99-20c44 1 53-31 53-75 0-43-8-75-51-75s-53 32-53 75 10 74 51 75" id="aB"/><g id="f"><use transform="matrix(0.06172839506172839,0,0,0.06172839506172839,0,0)" xlink:href="#ap"/><use transform="matrix(0.06172839506172839,0,0,0.06172839506172839,12.345679012345679,0)" xlink:href="#aA"/><use transform="matrix(0.06172839506172839,0,0,0.06172839506172839,17.22222222222222,0)" xlink:href="#aq"/><use transform="matrix(0.06172839506172839,0,0,0.06172839506172839,28.333333333333332,0)" xlink:href="#aB"/></g><g id="g"><use transform="matrix(0.06172839506172839,0,0,0.06172839506172839,0,0)" xlink:href="#ar"/><use transform="matrix(0.06172839506172839,0,0,0.06172839506172839,6.172839506172839,0)" xlink:href="#ay"/><use transform="matrix(0.06172839506172839,0,0,0.06172839506172839,18.51851851851852,0)" xlink:href="#av"/></g><path fill="#3a414a" d="M117-194c89-4 53 116 60 194h-32v-121c0-31-8-49-39-48C34-167 62-67 57 0H25l-1-190h30c1 10-1 24 2 32 11-22 29-35 61-36" id="aC"/><g id="h"><use transform="matrix(0.06172839506172839,0,0,0.06172839506172839,0,0)" xlink:href="#at"/><use transform="matrix(0.06172839506172839,0,0,0.06172839506172839,18.456790123456788,0)" xlink:href="#ap"/><use transform="matrix(0.06172839506172839,0,0,0.06172839506172839,30.80246913580247,0)" xlink:href="#az"/><use transform="matrix(0.06172839506172839,0,0,0.06172839506172839,35.67901234567901,0)" xlink:href="#aC"/></g><path fill="#3a414a" d="M96-169c-40 0-48 33-48 73s9 75 48 75c24 0 41-14 43-38l32 2c-6 37-31 61-74 61-59 0-76-41-82-99-10-93 101-131 147-64 4 7 5 14 7 22l-32 3c-4-21-16-35-41-35" id="aD"/><path fill="#3a414a" d="M33-261c38 41 65 92 65 168S71 34 33 75H2C39 34 66-17 66-93S39-220 2-261h31" id="aE"/><g id="i"><use transform="matrix(0.06172839506172839,0,0,0.06172839506172839,0,0)" xlink:href="#aq"/><use transform="matrix(0.06172839506172839,0,0,0.06172839506172839,11.11111111111111,0)" xlink:href="#aD"/><use transform="matrix(0.06172839506172839,0,0,0.06172839506172839,22.22222222222222,0)" xlink:href="#aw"/><use transform="matrix(0.06172839506172839,0,0,0.06172839506172839,29.5679012345679,0)" xlink:href="#av"/><use transform="matrix(0.06172839506172839,0,0,0.06172839506172839,41.913580246913575,0)" xlink:href="#av"/><use transform="matrix(0.06172839506172839,0,0,0.06172839506172839,54.25925925925925,0)" xlink:href="#aC"/><use transform="matrix(0.06172839506172839,0,0,0.06172839506172839,66.60493827160494,0)" xlink:href="#aE"/></g><g id="j"><use transform="matrix(0.06172839506172839,0,0,0.06172839506172839,0,0)" xlink:href="#ar"/><use transform="matrix(0.06172839506172839,0,0,0.06172839506172839,6.172839506172839,0)" xlink:href="#ap"/><use transform="matrix(0.06172839506172839,0,0,0.06172839506172839,18.51851851851852,0)" xlink:href="#as"/></g><path fill="#3a414a" d="M115-194c55 1 70 41 70 98S169 2 115 4C84 4 66-9 55-30l1 105H24l-1-265h31l2 30c10-21 28-34 59-34zm-8 174c40 0 45-34 45-75s-6-73-45-74c-42 0-51 32-51 76 0 43 10 73 51 73" id="aF"/><g id="k"><use transform="matrix(0.06172839506172839,0,0,0.06172839506172839,0,0)" xlink:href="#ap"/><use transform="matrix(0.06172839506172839,0,0,0.06172839506172839,12.345679012345679,0)" xlink:href="#aF"/><use transform="matrix(0.06172839506172839,0,0,0.06172839506172839,24.691358024691358,0)" xlink:href="#aF"/></g><path fill="#3a414a" d="M143 4C61 4 22-44 18-125c-5-107 100-154 193-111 17 8 29 25 37 43l-32 9c-13-25-37-40-76-40-61 0-88 39-88 99 0 61 29 100 91 101 35 0 62-11 79-27v-45h-74v-28h105v86C228-13 192 4 143 4" id="aG"/><path fill="#3a414a" d="M108 0H70L1-190h34L89-25l56-165h34" id="aH"/><g id="l"><use transform="matrix(0.06172839506172839,0,0,0.06172839506172839,0,0)" xlink:href="#aG"/><use transform="matrix(0.06172839506172839,0,0,0.06172839506172839,17.28395061728395,0)" xlink:href="#az"/><use transform="matrix(0.06172839506172839,0,0,0.06172839506172839,22.160493827160494,0)" xlink:href="#aH"/><use transform="matrix(0.06172839506172839,0,0,0.06172839506172839,33.27160493827161,0)" xlink:href="#av"/></g><g id="m"><use transform="matrix(0.06172839506172839,0,0,0.06172839506172839,0,0)" xlink:href="#at"/><use transform="matrix(0.06172839506172839,0,0,0.06172839506172839,18.456790123456788,0)" xlink:href="#av"/></g><use transform="matrix(0.06172839506172839,0,0,0.06172839506172839,0,0)" xlink:href="#ap" id="n"/><path fill="#3a414a" d="M177-190C167-65 218 103 67 71c-23-6-38-20-44-43l32-5c15 47 100 32 89-28v-30C133-14 115 1 83 1 29 1 15-40 15-95c0-56 16-97 71-98 29-1 48 16 59 35 1-10 0-23 2-32h30zM94-22c36 0 50-32 50-73 0-42-14-75-50-75-39 0-46 34-46 75s6 73 46 73" id="aI"/><path fill="#3a414a" d="M63-70H37l-4-178h34zM33 0v-35h34V0H33" id="aJ"/><g id="o"><use transform="matrix(0.06172839506172839,0,0,0.06172839506172839,0,0)" xlink:href="#aq"/><use transform="matrix(0.06172839506172839,0,0,0.06172839506172839,11.11111111111111,0)" xlink:href="#aB"/><use transform="matrix(0.06172839506172839,0,0,0.06172839506172839,23.45679012345679,0)" xlink:href="#aC"/><use transform="matrix(0.06172839506172839,0,0,0.06172839506172839,35.80246913580247,0)" xlink:href="#aI"/><use transform="matrix(0.06172839506172839,0,0,0.06172839506172839,48.148148148148145,0)" xlink:href="#aJ"/></g><path fill="#3a414a" d="M137 0h-34L2-248h35l83 218 83-218h36" id="aK"/><path fill="#3a414a" d="M84 4C-5 8 30-112 23-190h32v120c0 31 7 50 39 49 72-2 45-101 50-169h31l1 190h-30c-1-10 1-25-2-33-11 22-28 36-60 37" id="aL"/><g id="p"><use transform="matrix(0.06172839506172839,0,0,0.06172839506172839,0,0)" xlink:href="#aK"/><use transform="matrix(0.06172839506172839,0,0,0.06172839506172839,14.382716049382715,0)" xlink:href="#az"/><use transform="matrix(0.06172839506172839,0,0,0.06172839506172839,19.25925925925926,0)" xlink:href="#aq"/><use transform="matrix(0.06172839506172839,0,0,0.06172839506172839,30.37037037037037,0)" xlink:href="#aL"/><use transform="matrix(0.06172839506172839,0,0,0.06172839506172839,42.71604938271605,0)" xlink:href="#ap"/><use transform="matrix(0.06172839506172839,0,0,0.06172839506172839,55.06172839506173,0)" xlink:href="#aA"/><use transform="matrix(0.06172839506172839,0,0,0.06172839506172839,59.93827160493827,0)" xlink:href="#az"/><use transform="matrix(0.06172839506172839,0,0,0.06172839506172839,64.81481481481481,0)" xlink:href="#aq"/><use transform="matrix(0.06172839506172839,0,0,0.06172839506172839,75.92592592592592,0)" xlink:href="#ap"/><use transform="matrix(0.06172839506172839,0,0,0.06172839506172839,88.27160493827161,0)" xlink:href="#ar"/><use transform="matrix(0.06172839506172839,0,0,0.06172839506172839,94.44444444444444,0)" xlink:href="#az"/><use transform="matrix(0.06172839506172839,0,0,0.06172839506172839,99.32098765432099,0)" xlink:href="#aB"/><use transform="matrix(0.06172839506172839,0,0,0.06172839506172839,111.66666666666667,0)" xlink:href="#aC"/></g><path fill="#3a414a" d="M101-234c-31-9-42 10-38 44h38v23H63V0H32v-167H5v-23h27c-7-52 17-82 69-68v24" id="aM"/><g id="q"><use transform="matrix(0.06172839506172839,0,0,0.06172839506172839,0,0)" xlink:href="#aM"/><use transform="matrix(0.06172839506172839,0,0,0.06172839506172839,6.172839506172839,0)" xlink:href="#av"/><use transform="matrix(0.06172839506172839,0,0,0.06172839506172839,18.51851851851852,0)" xlink:href="#ap"/><use transform="matrix(0.06172839506172839,0,0,0.06172839506172839,30.864197530864196,0)" xlink:href="#ar"/><use transform="matrix(0.06172839506172839,0,0,0.06172839506172839,37.03703703703704,0)" xlink:href="#aL"/><use transform="matrix(0.06172839506172839,0,0,0.06172839506172839,49.382716049382715,0)" xlink:href="#aw"/><use transform="matrix(0.06172839506172839,0,0,0.06172839506172839,56.72839506172839,0)" xlink:href="#av"/><use transform="matrix(0.06172839506172839,0,0,0.06172839506172839,69.07407407407408,0)" xlink:href="#aq"/></g><path fill="#3a414a" d="M233-177c-1 41-23 64-60 70L243 0h-38l-65-103H63V0H30v-248c88 3 205-21 203 71zM63-129c60-2 137 13 137-47 0-61-80-42-137-45v92" id="aN"/><path fill="#3a414a" d="M16-82v-28h88v28H16" id="aO"/><g id="r"><use transform="matrix(0.06790123456790123,0,0,0.06790123456790123,0,0)" xlink:href="#aN"/><use transform="matrix(0.06790123456790123,0,0,0.06790123456790123,17.586419753086417,0)" xlink:href="#av"/><use transform="matrix(0.06790123456790123,0,0,0.06790123456790123,31.166666666666664,0)" xlink:href="#aO"/><use transform="matrix(0.06790123456790123,0,0,0.06790123456790123,39.24691358024691,0)" xlink:href="#aw"/><use transform="matrix(0.06790123456790123,0,0,0.06790123456790123,47.32716049382716,0)" xlink:href="#ap"/><use transform="matrix(0.06790123456790123,0,0,0.06790123456790123,60.907407407407405,0)" xlink:href="#ar"/><use transform="matrix(0.06790123456790123,0,0,0.06790123456790123,67.69753086419753,0)" xlink:href="#av"/></g><g id="s"><use transform="matrix(0.06790123456790123,0,0,0.06790123456790123,0,0)" xlink:href="#ar"/><use transform="matrix(0.06790123456790123,0,0,0.06790123456790123,6.790123456790123,0)" xlink:href="#ay"/><use transform="matrix(0.06790123456790123,0,0,0.06790123456790123,20.37037037037037,0)" xlink:href="#av"/></g><g id="t"><use transform="matrix(0.06790123456790123,0,0,0.06790123456790123,0,0)" xlink:href="#ar"/><use transform="matrix(0.06790123456790123,0,0,0.06790123456790123,6.790123456790123,0)" xlink:href="#ap"/><use transform="matrix(0.06790123456790123,0,0,0.06790123456790123,20.37037037037037,0)" xlink:href="#as"/></g><path fill="#3a414a" d="M30-248c87 1 191-15 191 75 0 78-77 80-158 76V0H30v-248zm33 125c57 0 124 11 124-50 0-59-68-47-124-48v98" id="aP"/><path fill="#3a414a" d="M179-190L93 31C79 59 56 82 12 73V49c39 6 53-20 64-50L1-190h34L92-34l54-156h33" id="aQ"/><g id="u"><use transform="matrix(0.06172839506172839,0,0,0.06172839506172839,0,0)" xlink:href="#aP"/><use transform="matrix(0.06172839506172839,0,0,0.06172839506172839,14.814814814814813,0)" xlink:href="#aA"/><use transform="matrix(0.06172839506172839,0,0,0.06172839506172839,19.691358024691354,0)" xlink:href="#ap"/><use transform="matrix(0.06172839506172839,0,0,0.06172839506172839,32.03703703703703,0)" xlink:href="#aQ"/></g><g id="v"><use transform="matrix(0.06172839506172839,0,0,0.06172839506172839,0,0)" xlink:href="#aq"/><use transform="matrix(0.06172839506172839,0,0,0.06172839506172839,11.11111111111111,0)" xlink:href="#aB"/><use transform="matrix(0.06172839506172839,0,0,0.06172839506172839,23.45679012345679,0)" xlink:href="#aC"/><use transform="matrix(0.06172839506172839,0,0,0.06172839506172839,35.80246913580247,0)" xlink:href="#aI"/></g><path fill="#3a414a" d="M240 0l2-218c-23 76-54 145-80 218h-23L58-218 59 0H30v-248h44l77 211c21-75 51-140 76-211h43V0h-30" id="aR"/><g id="w"><use transform="matrix(0.06172839506172839,0,0,0.06172839506172839,0,0)" xlink:href="#aR"/><use transform="matrix(0.06172839506172839,0,0,0.06172839506172839,18.456790123456788,0)" xlink:href="#ap"/><use transform="matrix(0.06172839506172839,0,0,0.06172839506172839,30.80246913580247,0)" xlink:href="#au"/><use transform="matrix(0.06172839506172839,0,0,0.06172839506172839,41.91358024691358,0)" xlink:href="#av"/></g><g id="x"><use transform="matrix(0.06172839506172839,0,0,0.06172839506172839,0,0)" xlink:href="#ar"/><use transform="matrix(0.06172839506172839,0,0,0.06172839506172839,6.172839506172839,0)" xlink:href="#ap"/><use transform="matrix(0.06172839506172839,0,0,0.06172839506172839,18.51851851851852,0)" xlink:href="#as"/></g><g id="y"><use transform="matrix(0.06172839506172839,0,0,0.06172839506172839,0,0)" xlink:href="#aw"/><use transform="matrix(0.06172839506172839,0,0,0.06172839506172839,7.345679012345679,0)" xlink:href="#ap"/><use transform="matrix(0.06172839506172839,0,0,0.06172839506172839,19.691358024691358,0)" xlink:href="#ar"/><use transform="matrix(0.06172839506172839,0,0,0.06172839506172839,25.864197530864196,0)" xlink:href="#az"/><use transform="matrix(0.06172839506172839,0,0,0.06172839506172839,30.74074074074074,0)" xlink:href="#aC"/><use transform="matrix(0.06172839506172839,0,0,0.06172839506172839,43.08641975308642,0)" xlink:href="#aI"/></g><g id="z"><use transform="matrix(0.06172839506172839,0,0,0.06172839506172839,0,0)" xlink:href="#aM"/><use transform="matrix(0.06172839506172839,0,0,0.06172839506172839,6.172839506172839,0)" xlink:href="#aw"/><use transform="matrix(0.06172839506172839,0,0,0.06172839506172839,13.518518518518519,0)" xlink:href="#aB"/><use transform="matrix(0.06172839506172839,0,0,0.06172839506172839,25.864197530864196,0)" xlink:href="#at"/></g><path fill="#3a414a" d="M27 0v-27h64v-190l-56 39v-29l58-41h29v221h61V0H27" id="aS"/><path fill="#3a414a" d="M101-251c68 0 85 55 85 127S166 4 100 4C33 4 14-52 14-124c0-73 17-127 87-127zm-1 229c47 0 54-49 54-102s-4-102-53-102c-51 0-55 48-55 102 0 53 5 102 54 102" id="aT"/><g id="A"><use transform="matrix(0.06172839506172839,0,0,0.06172839506172839,0,0)" xlink:href="#aS"/><use transform="matrix(0.06172839506172839,0,0,0.06172839506172839,12.345679012345679,0)" xlink:href="#aO"/><use transform="matrix(0.06172839506172839,0,0,0.06172839506172839,19.691358024691358,0)" xlink:href="#aS"/><use transform="matrix(0.06172839506172839,0,0,0.06172839506172839,32.03703703703704,0)" xlink:href="#aT"/></g><path fill="#3a414a" d="M212-179c-10-28-35-45-73-45-59 0-87 40-87 99 0 60 29 101 89 101 43 0 62-24 78-52l27 14C228-24 195 4 139 4 59 4 22-46 18-125c-6-104 99-153 187-111 19 9 31 26 39 46" id="aU"/><g id="B"><use transform="matrix(0.06172839506172839,0,0,0.06172839506172839,0,0)" xlink:href="#aU"/><use transform="matrix(0.06172839506172839,0,0,0.06172839506172839,15.987654320987653,0)" xlink:href="#ap"/><use transform="matrix(0.06172839506172839,0,0,0.06172839506172839,28.333333333333332,0)" xlink:href="#ar"/><use transform="matrix(0.06172839506172839,0,0,0.06172839506172839,34.50617283950617,0)" xlink:href="#av"/><use transform="matrix(0.06172839506172839,0,0,0.06172839506172839,46.85185185185185,0)" xlink:href="#aI"/><use transform="matrix(0.06172839506172839,0,0,0.06172839506172839,59.197530864197525,0)" xlink:href="#aB"/><use transform="matrix(0.06172839506172839,0,0,0.06172839506172839,71.5432098765432,0)" xlink:href="#aw"/><use transform="matrix(0.06172839506172839,0,0,0.06172839506172839,78.88888888888889,0)" xlink:href="#az"/><use transform="matrix(0.06172839506172839,0,0,0.06172839506172839,83.76543209876543,0)" xlink:href="#aq"/><use transform="matrix(0.06172839506172839,0,0,0.06172839506172839,94.87654320987654,0)" xlink:href="#av"/></g><g id="C"><use transform="matrix(0.06172839506172839,0,0,0.06172839506172839,0,0)" xlink:href="#ar"/><use transform="matrix(0.06172839506172839,0,0,0.06172839506172839,6.172839506172839,0)" xlink:href="#ay"/><use transform="matrix(0.06172839506172839,0,0,0.06172839506172839,18.51851851851852,0)" xlink:href="#av"/></g><path fill="#3a414a" d="M85-194c31 0 48 13 60 33l-1-100h32l1 261h-30c-2-10 0-23-3-31C134-8 116 4 85 4 32 4 16-35 15-94c0-66 23-100 70-100zm9 24c-40 0-46 34-46 75 0 40 6 74 45 74 42 0 51-32 51-76 0-42-9-74-50-73" id="aV"/><g id="D"><use transform="matrix(0.06172839506172839,0,0,0.06172839506172839,0,0)" xlink:href="#as"/><use transform="matrix(0.06172839506172839,0,0,0.06172839506172839,12.345679012345679,0)" xlink:href="#ap"/><use transform="matrix(0.06172839506172839,0,0,0.06172839506172839,24.691358024691358,0)" xlink:href="#aq"/><use transform="matrix(0.06172839506172839,0,0,0.06172839506172839,35.80246913580247,0)" xlink:href="#av"/><use transform="matrix(0.06172839506172839,0,0,0.06172839506172839,48.148148148148145,0)" xlink:href="#aV"/></g><g id="E"><use transform="matrix(0.06172839506172839,0,0,0.06172839506172839,0,0)" xlink:href="#aB"/><use transform="matrix(0.06172839506172839,0,0,0.06172839506172839,12.345679012345679,0)" xlink:href="#aC"/></g><path fill="#3a414a" d="M145-31C134-9 116 4 85 4 32 4 16-35 15-94c0-59 17-99 70-100 32-1 48 14 60 33 0-11-1-24 2-32h30l-1 268h-32zM93-21c41 0 51-33 51-76s-8-73-50-73c-40 0-46 35-46 75s5 74 45 74" id="aW"/><g id="F"><use transform="matrix(0.06172839506172839,0,0,0.06172839506172839,0,0)" xlink:href="#ar"/><use transform="matrix(0.06172839506172839,0,0,0.06172839506172839,6.172839506172839,0)" xlink:href="#av"/><use transform="matrix(0.06172839506172839,0,0,0.06172839506172839,18.51851851851852,0)" xlink:href="#aD"/><use transform="matrix(0.06172839506172839,0,0,0.06172839506172839,29.62962962962963,0)" xlink:href="#ay"/><use transform="matrix(0.06172839506172839,0,0,0.06172839506172839,41.97530864197531,0)" xlink:href="#aC"/><use transform="matrix(0.06172839506172839,0,0,0.06172839506172839,54.32098765432099,0)" xlink:href="#az"/><use transform="matrix(0.06172839506172839,0,0,0.06172839506172839,59.19753086419753,0)" xlink:href="#aW"/><use transform="matrix(0.06172839506172839,0,0,0.06172839506172839,71.54320987654322,0)" xlink:href="#aL"/><use transform="matrix(0.06172839506172839,0,0,0.06172839506172839,83.8888888888889,0)" xlink:href="#av"/></g><g id="G"><use transform="matrix(0.06172839506172839,0,0,0.06172839506172839,0,0)" xlink:href="#aI"/><use transform="matrix(0.06172839506172839,0,0,0.06172839506172839,12.345679012345679,0)" xlink:href="#av"/><use transform="matrix(0.06172839506172839,0,0,0.06172839506172839,24.691358024691358,0)" xlink:href="#aC"/><use transform="matrix(0.06172839506172839,0,0,0.06172839506172839,37.03703703703704,0)" xlink:href="#aw"/><use transform="matrix(0.06172839506172839,0,0,0.06172839506172839,44.382716049382715,0)" xlink:href="#av"/></g><g id="H"><use transform="matrix(0.06172839506172839,0,0,0.06172839506172839,0,0)" xlink:href="#aV"/><use transform="matrix(0.06172839506172839,0,0,0.06172839506172839,12.345679012345679,0)" xlink:href="#av"/><use transform="matrix(0.06172839506172839,0,0,0.06172839506172839,24.691358024691358,0)" xlink:href="#aD"/><use transform="matrix(0.06172839506172839,0,0,0.06172839506172839,35.80246913580247,0)" xlink:href="#ap"/><use transform="matrix(0.06172839506172839,0,0,0.06172839506172839,48.148148148148145,0)" xlink:href="#aV"/><use transform="matrix(0.06172839506172839,0,0,0.06172839506172839,60.49382716049382,0)" xlink:href="#av"/></g><g id="I"><use transform="matrix(0.06172839506172839,0,0,0.06172839506172839,0,0)" xlink:href="#aG"/><use transform="matrix(0.06172839506172839,0,0,0.06172839506172839,17.28395061728395,0)" xlink:href="#av"/><use transform="matrix(0.06172839506172839,0,0,0.06172839506172839,29.629629629629626,0)" xlink:href="#aC"/><use transform="matrix(0.06172839506172839,0,0,0.06172839506172839,41.9753086419753,0)" xlink:href="#av"/><use transform="matrix(0.06172839506172839,0,0,0.06172839506172839,54.32098765432098,0)" xlink:href="#aw"/><use transform="matrix(0.06172839506172839,0,0,0.06172839506172839,61.66666666666666,0)" xlink:href="#ap"/><use transform="matrix(0.06172839506172839,0,0,0.06172839506172839,74.01234567901234,0)" xlink:href="#ar"/><use transform="matrix(0.06172839506172839,0,0,0.06172839506172839,80.18518518518518,0)" xlink:href="#av"/></g><g id="J"><use transform="matrix(0.06172839506172839,0,0,0.06172839506172839,0,0)" xlink:href="#aI"/><use transform="matrix(0.06172839506172839,0,0,0.06172839506172839,12.345679012345679,0)" xlink:href="#aw"/><use transform="matrix(0.06172839506172839,0,0,0.06172839506172839,19.691358024691358,0)" xlink:href="#ap"/><use transform="matrix(0.06172839506172839,0,0,0.06172839506172839,32.03703703703704,0)" xlink:href="#aF"/><use transform="matrix(0.06172839506172839,0,0,0.06172839506172839,44.382716049382715,0)" xlink:href="#ay"/></g><g id="K"><use transform="matrix(0.06172839506172839,0,0,0.06172839506172839,0,0)" xlink:href="#aB"/><use transform="matrix(0.06172839506172839,0,0,0.06172839506172839,12.345679012345679,0)" xlink:href="#aM"/></g><g id="L"><use transform="matrix(0.06172839506172839,0,0,0.06172839506172839,0,0)" xlink:href="#aw"/><use transform="matrix(0.06172839506172839,0,0,0.06172839506172839,7.345679012345679,0)" xlink:href="#ap"/><use transform="matrix(0.06172839506172839,0,0,0.06172839506172839,19.691358024691358,0)" xlink:href="#ar"/><use transform="matrix(0.06172839506172839,0,0,0.06172839506172839,25.864197530864196,0)" xlink:href="#az"/><use transform="matrix(0.06172839506172839,0,0,0.06172839506172839,30.74074074074074,0)" xlink:href="#aC"/><use transform="matrix(0.06172839506172839,0,0,0.06172839506172839,43.08641975308642,0)" xlink:href="#aI"/></g><use transform="matrix(0.06172839506172839,0,0,0.06172839506172839,0,0)" xlink:href="#ap" id="M"/><g id="N"><use transform="matrix(0.06172839506172839,0,0,0.06172839506172839,0,0)" xlink:href="#aB"/><use transform="matrix(0.06172839506172839,0,0,0.06172839506172839,12.345679012345679,0)" xlink:href="#aH"/><use transform="matrix(0.06172839506172839,0,0,0.06172839506172839,23.45679012345679,0)" xlink:href="#av"/><use transform="matrix(0.06172839506172839,0,0,0.06172839506172839,35.80246913580247,0)" xlink:href="#aw"/></g><g id="O"><use transform="matrix(0.06172839506172839,0,0,0.06172839506172839,0,0)" xlink:href="#ar"/><use transform="matrix(0.06172839506172839,0,0,0.06172839506172839,6.172839506172839,0)" xlink:href="#az"/><use transform="matrix(0.06172839506172839,0,0,0.06172839506172839,11.049382716049383,0)" xlink:href="#at"/><use transform="matrix(0.06172839506172839,0,0,0.06172839506172839,29.50617283950617,0)" xlink:href="#av"/></g><g id="P"><use transform="matrix(0.06172839506172839,0,0,0.06172839506172839,0,0)" xlink:href="#aC"/><use transform="matrix(0.06172839506172839,0,0,0.06172839506172839,12.345679012345679,0)" xlink:href="#aL"/><use transform="matrix(0.06172839506172839,0,0,0.06172839506172839,24.691358024691358,0)" xlink:href="#at"/><use transform="matrix(0.06172839506172839,0,0,0.06172839506172839,43.148148148148145,0)" xlink:href="#as"/><use transform="matrix(0.06172839506172839,0,0,0.06172839506172839,55.49382716049382,0)" xlink:href="#av"/><use transform="matrix(0.06172839506172839,0,0,0.06172839506172839,67.8395061728395,0)" xlink:href="#aw"/></g><g id="Q"><use transform="matrix(0.06172839506172839,0,0,0.06172839506172839,0,0)" xlink:href="#aB"/><use transform="matrix(0.06172839506172839,0,0,0.06172839506172839,12.345679012345679,0)" xlink:href="#aM"/></g><g id="R"><use transform="matrix(0.06172839506172839,0,0,0.06172839506172839,0,0)" xlink:href="#aF"/><use transform="matrix(0.06172839506172839,0,0,0.06172839506172839,12.345679012345679,0)" xlink:href="#aA"/><use transform="matrix(0.06172839506172839,0,0,0.06172839506172839,17.22222222222222,0)" xlink:href="#ap"/><use transform="matrix(0.06172839506172839,0,0,0.06172839506172839,29.5679012345679,0)" xlink:href="#aQ"/><use transform="matrix(0.06172839506172839,0,0,0.06172839506172839,40.67901234567901,0)" xlink:href="#aq"/></g><g id="S"><use transform="matrix(0.06172839506172839,0,0,0.06172839506172839,0,0)" xlink:href="#ax"/><use transform="matrix(0.06172839506172839,0,0,0.06172839506172839,7.345679012345679,0)" xlink:href="#aC"/><use transform="matrix(0.06172839506172839,0,0,0.06172839506172839,19.691358024691358,0)" xlink:href="#aL"/><use transform="matrix(0.06172839506172839,0,0,0.06172839506172839,32.03703703703704,0)" xlink:href="#at"/><use transform="matrix(0.06172839506172839,0,0,0.06172839506172839,50.49382716049382,0)" xlink:href="#as"/><use transform="matrix(0.06172839506172839,0,0,0.06172839506172839,62.8395061728395,0)" xlink:href="#av"/><use transform="matrix(0.06172839506172839,0,0,0.06172839506172839,75.18518518518518,0)" xlink:href="#aw"/></g><g id="T"><use transform="matrix(0.06172839506172839,0,0,0.06172839506172839,0,0)" xlink:href="#ar"/><use transform="matrix(0.06172839506172839,0,0,0.06172839506172839,6.172839506172839,0)" xlink:href="#az"/><use transform="matrix(0.06172839506172839,0,0,0.06172839506172839,11.049382716049383,0)" xlink:href="#at"/><use transform="matrix(0.06172839506172839,0,0,0.06172839506172839,29.50617283950617,0)" xlink:href="#av"/><use transform="matrix(0.06172839506172839,0,0,0.06172839506172839,41.85185185185185,0)" xlink:href="#aq"/></g><path fill="#3a414a" d="M47-170H22l-4-78h33" id="aX"/><g id="U"><use transform="matrix(0.06172839506172839,0,0,0.06172839506172839,0,0)" xlink:href="#az"/><use transform="matrix(0.06172839506172839,0,0,0.06172839506172839,4.876543209876543,0)" xlink:href="#ar"/><use transform="matrix(0.06172839506172839,0,0,0.06172839506172839,11.049382716049383,0)" xlink:href="#aX"/><use transform="matrix(0.06172839506172839,0,0,0.06172839506172839,15.246913580246915,0)" xlink:href="#aq"/></g><path fill="#3a414a" d="M206 0h-36l-40-164L89 0H53L-1-190h32L70-26l43-164h34l41 164 42-164h31" id="aY"/><g id="V"><use transform="matrix(0.06172839506172839,0,0,0.06172839506172839,0,0)" xlink:href="#aq"/><use transform="matrix(0.06172839506172839,0,0,0.06172839506172839,11.11111111111111,0)" xlink:href="#ay"/><use transform="matrix(0.06172839506172839,0,0,0.06172839506172839,23.45679012345679,0)" xlink:href="#aB"/><use transform="matrix(0.06172839506172839,0,0,0.06172839506172839,35.80246913580247,0)" xlink:href="#aY"/><use transform="matrix(0.06172839506172839,0,0,0.06172839506172839,51.79012345679012,0)" xlink:href="#aC"/><use transform="matrix(0.06172839506172839,0,0,0.06172839506172839,64.1358024691358,0)" xlink:href="#aE"/></g><path fill="#3a414a" d="M232-93c-1 65-40 97-104 97C67 4 28-28 28-90v-158h33c8 89-33 224 67 224 102 0 64-133 71-224h33v155" id="aZ"/><g id="W"><use transform="matrix(0.06172839506172839,0,0,0.06172839506172839,0,0)" xlink:href="#aZ"/><use transform="matrix(0.06172839506172839,0,0,0.06172839506172839,15.987654320987653,0)" xlink:href="#aq"/><use transform="matrix(0.06172839506172839,0,0,0.06172839506172839,27.098765432098766,0)" xlink:href="#av"/><use transform="matrix(0.06172839506172839,0,0,0.06172839506172839,39.44444444444444,0)" xlink:href="#aw"/></g><g id="X"><use transform="matrix(0.06172839506172839,0,0,0.06172839506172839,0,0)" xlink:href="#aD"/><use transform="matrix(0.06172839506172839,0,0,0.06172839506172839,11.11111111111111,0)" xlink:href="#ap"/><use transform="matrix(0.06172839506172839,0,0,0.06172839506172839,23.45679012345679,0)" xlink:href="#aC"/></g><g id="Y"><use transform="matrix(0.06172839506172839,0,0,0.06172839506172839,0,0)" xlink:href="#aV"/><use transform="matrix(0.06172839506172839,0,0,0.06172839506172839,12.345679012345679,0)" xlink:href="#aB"/><use transform="matrix(0.06172839506172839,0,0,0.06172839506172839,24.691358024691358,0)" xlink:href="#aY"/><use transform="matrix(0.06172839506172839,0,0,0.06172839506172839,40.67901234567901,0)" xlink:href="#aC"/><use transform="matrix(0.06172839506172839,0,0,0.06172839506172839,53.02469135802469,0)" xlink:href="#aA"/><use transform="matrix(0.06172839506172839,0,0,0.06172839506172839,57.901234567901234,0)" xlink:href="#aB"/><use transform="matrix(0.06172839506172839,0,0,0.06172839506172839,70.24691358024691,0)" xlink:href="#ap"/><use transform="matrix(0.06172839506172839,0,0,0.06172839506172839,82.5925925925926,0)" xlink:href="#aV"/></g><g id="Z"><use transform="matrix(0.06172839506172839,0,0,0.06172839506172839,0,0)" xlink:href="#aI"/><use transform="matrix(0.06172839506172839,0,0,0.06172839506172839,12.345679012345679,0)" xlink:href="#aw"/><use transform="matrix(0.06172839506172839,0,0,0.06172839506172839,19.691358024691358,0)" xlink:href="#ap"/><use transform="matrix(0.06172839506172839,0,0,0.06172839506172839,32.03703703703704,0)" xlink:href="#aF"/><use transform="matrix(0.06172839506172839,0,0,0.06172839506172839,44.382716049382715,0)" xlink:href="#ay"/></g><path fill="#3a414a" d="M205 0l-28-72H64L36 0H1l101-248h38L239 0h-34zm-38-99l-47-123c-12 45-31 82-46 123h93" id="ba"/><g id="aa"><use transform="matrix(0.06172839506172839,0,0,0.06172839506172839,0,0)" xlink:href="#ba"/><use transform="matrix(0.06172839506172839,0,0,0.06172839506172839,14.814814814814813,0)" xlink:href="#aA"/><use transform="matrix(0.06172839506172839,0,0,0.06172839506172839,19.691358024691354,0)" xlink:href="#aI"/><use transform="matrix(0.06172839506172839,0,0,0.06172839506172839,32.03703703703703,0)" xlink:href="#aB"/><use transform="matrix(0.06172839506172839,0,0,0.06172839506172839,44.38271604938271,0)" xlink:href="#aw"/><use transform="matrix(0.06172839506172839,0,0,0.06172839506172839,51.728395061728385,0)" xlink:href="#az"/><use transform="matrix(0.06172839506172839,0,0,0.06172839506172839,56.60493827160493,0)" xlink:href="#ar"/><use transform="matrix(0.06172839506172839,0,0,0.06172839506172839,62.77777777777777,0)" xlink:href="#ay"/><use transform="matrix(0.06172839506172839,0,0,0.06172839506172839,75.12345679012346,0)" xlink:href="#at"/></g><g id="ab"><use transform="matrix(0.06172839506172839,0,0,0.06172839506172839,0,0)" xlink:href="#aU"/><use transform="matrix(0.06172839506172839,0,0,0.06172839506172839,15.987654320987653,0)" xlink:href="#aB"/><use transform="matrix(0.06172839506172839,0,0,0.06172839506172839,28.333333333333332,0)" xlink:href="#aC"/><use transform="matrix(0.06172839506172839,0,0,0.06172839506172839,40.67901234567901,0)" xlink:href="#aq"/><use transform="matrix(0.06172839506172839,0,0,0.06172839506172839,51.79012345679013,0)" xlink:href="#az"/><use transform="matrix(0.06172839506172839,0,0,0.06172839506172839,56.66666666666667,0)" xlink:href="#aV"/><use transform="matrix(0.06172839506172839,0,0,0.06172839506172839,69.01234567901236,0)" xlink:href="#av"/><use transform="matrix(0.06172839506172839,0,0,0.06172839506172839,81.35802469135804,0)" xlink:href="#aw"/></g><g id="ac"><use transform="matrix(0.06172839506172839,0,0,0.06172839506172839,0,0)" xlink:href="#ar"/><use transform="matrix(0.06172839506172839,0,0,0.06172839506172839,6.172839506172839,0)" xlink:href="#ap"/><use transform="matrix(0.06172839506172839,0,0,0.06172839506172839,18.51851851851852,0)" xlink:href="#as"/><use transform="matrix(0.06172839506172839,0,0,0.06172839506172839,30.864197530864196,0)" xlink:href="#aX"/><use transform="matrix(0.06172839506172839,0,0,0.06172839506172839,35.06172839506173,0)" xlink:href="#aq"/></g><g id="ad"><use transform="matrix(0.06172839506172839,0,0,0.06172839506172839,0,0)" xlink:href="#aw"/><use transform="matrix(0.06172839506172839,0,0,0.06172839506172839,7.345679012345679,0)" xlink:href="#ap"/><use transform="matrix(0.06172839506172839,0,0,0.06172839506172839,19.691358024691358,0)" xlink:href="#ar"/><use transform="matrix(0.06172839506172839,0,0,0.06172839506172839,25.864197530864196,0)" xlink:href="#az"/><use transform="matrix(0.06172839506172839,0,0,0.06172839506172839,30.74074074074074,0)" xlink:href="#aC"/><use transform="matrix(0.06172839506172839,0,0,0.06172839506172839,43.08641975308642,0)" xlink:href="#aI"/></g><path fill="#3a414a" d="M127-220V0H93v-220H8v-28h204v28h-85" id="bb"/><g id="ae"><use transform="matrix(0.06172839506172839,0,0,0.06172839506172839,0,0)" xlink:href="#bb"/><use transform="matrix(0.06172839506172839,0,0,0.06172839506172839,12.716049382716047,0)" xlink:href="#aL"/><use transform="matrix(0.06172839506172839,0,0,0.06172839506172839,25.061728395061728,0)" xlink:href="#ar"/><use transform="matrix(0.06172839506172839,0,0,0.06172839506172839,31.234567901234566,0)" xlink:href="#aB"/><use transform="matrix(0.06172839506172839,0,0,0.06172839506172839,43.58024691358025,0)" xlink:href="#aw"/><use transform="matrix(0.06172839506172839,0,0,0.06172839506172839,50.925925925925924,0)" xlink:href="#az"/><use transform="matrix(0.06172839506172839,0,0,0.06172839506172839,55.80246913580247,0)" xlink:href="#ap"/><use transform="matrix(0.06172839506172839,0,0,0.06172839506172839,68.14814814814815,0)" xlink:href="#aA"/><use transform="matrix(0.06172839506172839,0,0,0.06172839506172839,73.0246913580247,0)" xlink:href="#aq"/></g><path fill="#3a414a" d="M266 0h-40l-56-210L115 0H75L2-248h35L96-30l15-64 43-154h32l59 218 59-218h35" id="bc"/><g id="af"><use transform="matrix(0.06172839506172839,0,0,0.06172839506172839,0,0)" xlink:href="#bc"/><use transform="matrix(0.06172839506172839,0,0,0.06172839506172839,20.123456790123456,0)" xlink:href="#ap"/><use transform="matrix(0.06172839506172839,0,0,0.06172839506172839,32.46913580246913,0)" xlink:href="#ar"/><use transform="matrix(0.06172839506172839,0,0,0.06172839506172839,38.641975308641975,0)" xlink:href="#aD"/><use transform="matrix(0.06172839506172839,0,0,0.06172839506172839,49.75308641975309,0)" xlink:href="#ay"/></g><g id="ag"><use transform="matrix(0.06172839506172839,0,0,0.06172839506172839,0,0)" xlink:href="#ar"/><use transform="matrix(0.06172839506172839,0,0,0.06172839506172839,6.172839506172839,0)" xlink:href="#av"/><use transform="matrix(0.06172839506172839,0,0,0.06172839506172839,18.51851851851852,0)" xlink:href="#aD"/><use transform="matrix(0.06172839506172839,0,0,0.06172839506172839,29.62962962962963,0)" xlink:href="#ay"/><use transform="matrix(0.06172839506172839,0,0,0.06172839506172839,41.97530864197531,0)" xlink:href="#aC"/><use transform="matrix(0.06172839506172839,0,0,0.06172839506172839,54.32098765432099,0)" xlink:href="#az"/><use transform="matrix(0.06172839506172839,0,0,0.06172839506172839,59.19753086419753,0)" xlink:href="#aW"/><use transform="matrix(0.06172839506172839,0,0,0.06172839506172839,71.54320987654322,0)" xlink:href="#aL"/><use transform="matrix(0.06172839506172839,0,0,0.06172839506172839,83.8888888888889,0)" xlink:href="#av"/></g><g id="ah"><use transform="matrix(0.06172839506172839,0,0,0.06172839506172839,0,0)" xlink:href="#ar"/><use transform="matrix(0.06172839506172839,0,0,0.06172839506172839,6.172839506172839,0)" xlink:href="#aL"/><use transform="matrix(0.06172839506172839,0,0,0.06172839506172839,18.51851851851852,0)" xlink:href="#ar"/><use transform="matrix(0.06172839506172839,0,0,0.06172839506172839,24.691358024691358,0)" xlink:href="#aB"/><use transform="matrix(0.06172839506172839,0,0,0.06172839506172839,37.03703703703704,0)" xlink:href="#aw"/><use transform="matrix(0.06172839506172839,0,0,0.06172839506172839,44.382716049382715,0)" xlink:href="#az"/><use transform="matrix(0.06172839506172839,0,0,0.06172839506172839,49.25925925925926,0)" xlink:href="#ap"/><use transform="matrix(0.06172839506172839,0,0,0.06172839506172839,61.60493827160494,0)" xlink:href="#aA"/><use transform="matrix(0.06172839506172839,0,0,0.06172839506172839,66.48148148148148,0)" xlink:href="#aq"/></g><g id="ai"><use transform="matrix(0.06172839506172839,0,0,0.06172839506172839,0,0)" xlink:href="#bc"/><use transform="matrix(0.06172839506172839,0,0,0.06172839506172839,20.123456790123456,0)" xlink:href="#ap"/><use transform="matrix(0.06172839506172839,0,0,0.06172839506172839,32.46913580246913,0)" xlink:href="#ar"/><use transform="matrix(0.06172839506172839,0,0,0.06172839506172839,38.641975308641975,0)" xlink:href="#aD"/><use transform="matrix(0.06172839506172839,0,0,0.06172839506172839,49.75308641975309,0)" xlink:href="#ay"/></g><g id="aj"><use transform="matrix(0.06172839506172839,0,0,0.06172839506172839,0,0)" xlink:href="#as"/><use transform="matrix(0.06172839506172839,0,0,0.06172839506172839,12.345679012345679,0)" xlink:href="#ap"/><use transform="matrix(0.06172839506172839,0,0,0.06172839506172839,24.691358024691358,0)" xlink:href="#aq"/><use transform="matrix(0.06172839506172839,0,0,0.06172839506172839,35.80246913580247,0)" xlink:href="#aq"/></g><g id="ak"><use transform="matrix(0.06172839506172839,0,0,0.06172839506172839,0,0)" xlink:href="#as"/><use transform="matrix(0.06172839506172839,0,0,0.06172839506172839,12.345679012345679,0)" xlink:href="#av"/><use transform="matrix(0.06172839506172839,0,0,0.06172839506172839,24.691358024691358,0)" xlink:href="#aI"/><use transform="matrix(0.06172839506172839,0,0,0.06172839506172839,37.03703703703704,0)" xlink:href="#az"/><use transform="matrix(0.06172839506172839,0,0,0.06172839506172839,41.91358024691358,0)" xlink:href="#aC"/><use transform="matrix(0.06172839506172839,0,0,0.06172839506172839,54.25925925925926,0)" xlink:href="#aC"/><use transform="matrix(0.06172839506172839,0,0,0.06172839506172839,66.60493827160494,0)" xlink:href="#av"/><use transform="matrix(0.06172839506172839,0,0,0.06172839506172839,78.95061728395062,0)" xlink:href="#aw"/></g><g id="al"><use transform="matrix(0.06172839506172839,0,0,0.06172839506172839,0,0)" xlink:href="#ar"/><use transform="matrix(0.06172839506172839,0,0,0.06172839506172839,6.172839506172839,0)" xlink:href="#ap"/><use transform="matrix(0.06172839506172839,0,0,0.06172839506172839,18.51851851851852,0)" xlink:href="#as"/><use transform="matrix(0.06172839506172839,0,0,0.06172839506172839,30.864197530864196,0)" xlink:href="#aq"/></g><g id="am"><use transform="matrix(0.06172839506172839,0,0,0.06172839506172839,0,0)" xlink:href="#ar"/><use transform="matrix(0.06172839506172839,0,0,0.06172839506172839,6.172839506172839,0)" xlink:href="#av"/><use transform="matrix(0.06172839506172839,0,0,0.06172839506172839,18.51851851851852,0)" xlink:href="#aD"/><use transform="matrix(0.06172839506172839,0,0,0.06172839506172839,29.62962962962963,0)" xlink:href="#ay"/><use transform="matrix(0.06172839506172839,0,0,0.06172839506172839,41.97530864197531,0)" xlink:href="#aC"/><use transform="matrix(0.06172839506172839,0,0,0.06172839506172839,54.32098765432099,0)" xlink:href="#az"/><use transform="matrix(0.06172839506172839,0,0,0.06172839506172839,59.19753086419753,0)" xlink:href="#aW"/><use transform="matrix(0.06172839506172839,0,0,0.06172839506172839,71.54320987654322,0)" xlink:href="#aL"/><use transform="matrix(0.06172839506172839,0,0,0.06172839506172839,83.8888888888889,0)" xlink:href="#av"/></g><g id="an"><use transform="matrix(0.06172839506172839,0,0,0.06172839506172839,0,0)" xlink:href="#aF"/><use transform="matrix(0.06172839506172839,0,0,0.06172839506172839,12.345679012345679,0)" xlink:href="#aA"/><use transform="matrix(0.06172839506172839,0,0,0.06172839506172839,17.22222222222222,0)" xlink:href="#ap"/><use transform="matrix(0.06172839506172839,0,0,0.06172839506172839,29.5679012345679,0)" xlink:href="#aQ"/><use transform="matrix(0.06172839506172839,0,0,0.06172839506172839,40.67901234567901,0)" xlink:href="#aq"/></g></defs></g></svg>